<svg width="105" height="123" viewBox="0 0 105 123" fill="none" xmlns="http://www.w3.org/2000/svg">
<g clip-path="url(#clip0_32_106)">
<path d="M19.3185 109.905C20.2177 109.905 20.9458 109.179 20.9458 108.285V76.8194C20.9458 75.9246 20.2177 75.1985 19.3185 75.1985C18.4193 75.1985 17.6912 75.9246 17.6912 76.8194V108.285C17.6912 109.179 18.4193 109.905 19.3185 109.905Z" fill="#0B1627"/>
<path d="M28.799 115.195C29.6982 115.195 30.4263 114.469 30.4263 113.575V71.5296C30.4263 70.6349 29.6982 69.9087 28.799 69.9087C27.8998 69.9087 27.1716 70.6349 27.1716 71.5296V113.575C27.1716 114.469 27.8998 115.195 28.799 115.195Z" fill="#0B1627"/>
<path d="M38.2794 115.195C39.1786 115.195 39.9067 114.469 39.9067 113.575V71.5296C39.9067 70.6349 39.1786 69.9087 38.2794 69.9087C37.3802 69.9087 36.652 70.6349 36.652 71.5296V113.575C36.652 114.469 37.3802 115.195 38.2794 115.195Z" fill="#0B1627"/>
<path d="M47.7598 115.195C48.659 115.195 49.3871 114.469 49.3871 113.575V71.5296C49.3871 70.6349 48.659 69.9087 47.7598 69.9087C46.8606 69.9087 46.1324 70.6349 46.1324 71.5296V113.575C46.1324 114.469 46.8606 115.195 47.7598 115.195Z" fill="#0B1627"/>
<path d="M57.2402 115.195C58.1394 115.195 58.8676 114.469 58.8676 113.575V71.5296C58.8676 70.6349 58.1394 69.9087 57.2402 69.9087C56.3411 69.9087 55.6129 70.6349 55.6129 71.5296V113.575C55.6129 114.469 56.3411 115.195 57.2402 115.195Z" fill="#0B1627"/>
<path d="M66.7197 115.195C67.6189 115.195 68.3471 114.469 68.3471 113.575V71.5296C68.3471 70.6349 67.6189 69.9087 66.7197 69.9087C65.8205 69.9087 65.0924 70.6349 65.0924 71.5296V113.575C65.0924 114.469 65.8205 115.195 66.7197 115.195Z" fill="#0B1627"/>
<path d="M76.2011 115.195C77.1003 115.195 77.8284 114.469 77.8284 113.575V71.5296C77.8284 70.6349 77.1003 69.9087 76.2011 69.9087C75.3019 69.9087 74.5737 70.6349 74.5737 71.5296V113.575C74.5737 114.469 75.3019 115.195 76.2011 115.195Z" fill="#0B1627"/>
<path d="M85.6815 109.905C86.5807 109.905 87.3088 109.179 87.3088 108.285V76.8194C87.3088 75.9246 86.5807 75.1985 85.6815 75.1985C84.7823 75.1985 84.0541 75.9246 84.0541 76.8194V108.285C84.0541 109.179 84.7823 109.905 85.6815 109.905Z" fill="#0B1627"/>
<path d="M103.373 52.4764H89.2179V44.8987H91.0337C93.8017 44.8987 96.0538 42.6565 96.0538 39.8985C96.0538 37.1406 93.8017 34.8974 91.0337 34.8974H89.2179V32.0165H91.0337C93.8017 32.0165 96.0538 29.7742 96.0538 27.0163C96.0538 24.2584 93.8017 22.0161 91.0337 22.0161H89.2179V19.4094H91.0337C93.8017 19.4094 96.0538 17.1663 96.0538 14.4093C96.0538 11.6522 93.8017 9.40909 91.0337 9.40909H88.6718L87.7781 1.43869C87.6857 0.617781 86.9896 -0.00268555 86.1608 -0.00268555H78.9407C78.112 -0.00268555 77.4158 0.617781 77.3235 1.43869L76.4297 9.40909H74.0706C71.3026 9.40909 69.0505 11.6522 69.0505 14.4093C69.0505 17.1663 71.3026 19.4094 74.0706 19.4094H75.8864V22.0161H74.0706C71.3026 22.0161 69.0505 24.2593 69.0505 27.0163C69.0505 29.7733 71.3026 32.0165 74.0706 32.0165H75.8864V34.8974H74.0706C71.3026 34.8974 69.0505 37.1406 69.0505 39.8985C69.0505 42.6565 71.3026 44.8987 74.0706 44.8987H75.8864V52.4764H59.1648V44.8987H60.9806C63.7486 44.8987 66.0007 42.6565 66.0007 39.8985C66.0007 37.1406 63.7486 34.8974 60.9806 34.8974H59.1648V32.0165H60.9806C63.7486 32.0165 66.0007 29.7742 66.0007 27.0163C66.0007 24.2584 63.7486 22.0161 60.9806 22.0161H59.1648V19.4094H60.9806C63.7486 19.4094 66.0007 17.1663 66.0007 14.4093C66.0007 11.6522 63.7486 9.40909 60.9806 9.40909H58.6187L57.725 1.43869C57.6326 0.617781 56.9365 -0.00268555 56.1078 -0.00268555H48.8886C48.0598 -0.00268555 47.3637 0.617781 47.2713 1.43869L46.3776 9.40909H44.0176C41.2495 9.40909 38.9974 11.6522 38.9974 14.4093C38.9974 17.1663 41.2495 19.4094 44.0176 19.4094H45.8333V22.0161H44.0176C41.2495 22.0161 38.9974 24.2593 38.9974 27.0163C38.9974 29.7733 41.2495 32.0165 44.0176 32.0165H45.8333V34.8974H44.0176C41.2495 34.8974 38.9974 37.1406 38.9974 39.8985C38.9974 42.6565 41.2495 44.8987 44.0176 44.8987H45.8333V52.4764H29.1118V44.8987H30.9276C33.6956 44.8987 35.9477 42.6565 35.9477 39.8985C35.9477 37.1406 33.6956 34.8974 30.9276 34.8974H29.1118V32.0165H30.9276C33.6956 32.0165 35.9477 29.7742 35.9477 27.0163C35.9477 24.2584 33.6956 22.0161 30.9276 22.0161H29.1118V19.4094H30.9276C33.6956 19.4094 35.9477 17.1663 35.9477 14.4093C35.9477 11.6522 33.6956 9.40909 30.9276 9.40909H28.5657L27.672 1.43869C27.5796 0.617781 26.8835 -0.00268555 26.0547 -0.00268555H18.8346C18.0059 -0.00268555 17.3097 0.617781 17.2173 1.43869L16.3236 9.40909H13.9645C11.1965 9.40909 8.94438 11.6522 8.94438 14.4093C8.94438 17.1663 11.1965 19.4094 13.9645 19.4094H15.7803V22.0161H13.9645C11.1965 22.0161 8.94438 24.2593 8.94438 27.0163C8.94438 29.7733 11.1965 32.0165 13.9645 32.0165H15.7803V34.8974H13.9645C11.1965 34.8974 8.94438 37.1406 8.94438 39.8985C8.94438 42.6565 11.1965 44.8987 13.9645 44.8987H15.7803V52.4764H1.62733C0.728138 52.4764 0 53.2026 0 54.0973V63.376C0 64.2707 0.728138 64.9969 1.62733 64.9969H6.70143V113.621H4.57464C3.67545 113.621 2.94731 114.347 2.94731 115.242V121.379C2.94731 122.274 3.67545 123 4.57464 123H100.424C101.324 123 102.052 122.274 102.052 121.379V115.242C102.052 114.347 101.324 113.621 100.424 113.621H98.2977V64.9969H103.372C104.271 64.9969 104.999 64.2707 104.999 63.376V54.0973C104.999 53.2026 104.271 52.4764 103.372 52.4764H103.373ZM80.3979 3.24178H84.7064L85.3979 9.41183H79.7064L80.3979 3.24178ZM72.307 14.412C72.307 13.4426 73.0992 12.6536 74.0724 12.6536H77.8558C77.8723 12.6536 77.8888 12.6536 77.9052 12.6536H87.2045C87.2045 12.6536 87.2119 12.6536 87.2155 12.6536C87.2219 12.6536 87.2283 12.6536 87.2347 12.6536H91.0346C92.0079 12.6536 92.8 13.4426 92.8 14.412C92.8 15.3814 92.0079 16.1704 91.0346 16.1704H74.0724C73.0992 16.1704 72.307 15.3814 72.307 14.412ZM79.142 19.4113H85.9632V22.018H79.142V19.4113ZM72.307 27.0172C72.307 26.0478 73.0992 25.2588 74.0724 25.2588H91.0346C92.0079 25.2588 92.8 26.0469 92.8 27.0172C92.8 27.9876 92.0079 28.7757 91.0346 28.7757H74.0724C73.0992 28.7757 72.307 27.9876 72.307 27.0172ZM79.142 32.0174H85.9632V34.8983H79.142V32.0174ZM72.307 39.8994C72.307 38.93 73.0992 38.1401 74.0724 38.1401H91.0346C92.0079 38.1401 92.8 38.9291 92.8 39.8994C92.8 40.8698 92.0079 41.6579 91.0346 41.6579H74.0724C73.0992 41.6579 72.307 40.8698 72.307 39.8994ZM79.142 44.8987H85.9632V52.4764H79.142V44.8987ZM50.3449 3.24178H54.6524L55.3439 9.41183H49.6524L50.3439 3.24178H50.3449ZM42.253 14.412C42.253 13.4426 43.0452 12.6536 44.0185 12.6536H47.8019C47.8183 12.6536 47.8348 12.6536 47.8513 12.6536H57.1506C57.1506 12.6536 57.1579 12.6536 57.1615 12.6536C57.1679 12.6536 57.1743 12.6536 57.1808 12.6536H60.9806C61.9539 12.6536 62.7461 13.4426 62.7461 14.412C62.7461 15.3814 61.9539 16.1704 60.9806 16.1704H44.0185C43.0452 16.1704 42.253 15.3814 42.253 14.412ZM49.0889 19.4113H55.9111V22.018H49.0889V19.4113ZM42.253 27.0172C42.253 26.0478 43.0452 25.2588 44.0185 25.2588H60.9806C61.9539 25.2588 62.7461 26.0469 62.7461 27.0172C62.7461 27.9876 61.9539 28.7757 60.9806 28.7757H44.0185C43.0452 28.7757 42.253 27.9876 42.253 27.0172ZM49.0889 32.0174H55.9111V34.8983H49.0889V32.0174ZM42.253 39.8994C42.253 38.93 43.0452 38.1401 44.0185 38.1401H60.9806C61.9539 38.1401 62.7461 38.9291 62.7461 39.8994C62.7461 40.8698 61.9539 41.6579 60.9806 41.6579H44.0185C43.0452 41.6579 42.253 40.8698 42.253 39.8994ZM49.0889 44.8987H55.9111V52.4764H49.0889V44.8987ZM20.2918 3.24178H24.6003L25.2918 9.41183H19.6003L20.2918 3.24178ZM12.2009 14.412C12.2009 13.4426 12.993 12.6536 13.9663 12.6536H17.7488C17.7653 12.6536 17.7817 12.6536 17.7982 12.6536H27.0984C27.0984 12.6536 27.1057 12.6536 27.1094 12.6536C27.1158 12.6536 27.1222 12.6536 27.1286 12.6536H30.9285C31.9018 12.6536 32.6939 13.4426 32.6939 14.412C32.6939 15.3814 31.9018 16.1704 30.9285 16.1704H13.9663C12.993 16.1704 12.2009 15.3814 12.2009 14.412ZM19.0368 19.4113H25.858V22.018H19.0368V19.4113ZM12.2009 27.0172C12.2009 26.0478 12.993 25.2588 13.9663 25.2588H30.9285C31.9018 25.2588 32.6939 26.0469 32.6939 27.0172C32.6939 27.9876 31.9018 28.7757 30.9285 28.7757H13.9663C12.993 28.7757 12.2009 27.9876 12.2009 27.0172ZM19.0368 32.0174H25.858V34.8983H19.0368V32.0174ZM12.2009 39.8994C12.2009 38.93 12.993 38.1401 13.9663 38.1401H30.9285C31.9018 38.1401 32.6939 38.9291 32.6939 39.8994C32.6939 40.8698 31.9018 41.6579 30.9285 41.6579H13.9663C12.993 41.6579 12.2009 40.8698 12.2009 39.8994ZM19.0368 44.8987H25.858V52.4764H19.0368V44.8987ZM95.0439 113.621H93.0909C92.1917 113.621 91.4636 114.347 91.4636 115.242C91.4636 116.137 92.1917 116.863 93.0909 116.863H98.7971V119.758H6.20289V116.863H11.9091C12.8083 116.863 13.5364 116.137 13.5364 115.242C13.5364 114.347 12.8083 113.621 11.9091 113.621H9.95609V64.9969H95.0439V113.621ZM101.745 61.7552H96.7133C96.6996 61.7552 96.6859 61.7533 96.6712 61.7533H8.32876C8.31504 61.7533 8.30132 61.7552 8.28668 61.7552H3.25467V55.7181H101.745V61.7552Z" fill="#0B1627"/>
</g>
<defs>
<clipPath id="clip0_32_106">
<rect width="105" height="123" fill="white"/>
</clipPath>
</defs>
</svg>
