<svg width="764" height="833" viewBox="0 0 764 833" fill="none" xmlns="http://www.w3.org/2000/svg">
<path d="M495.174 206.039L634.497 -169.977C644.944 -198.147 618.682 -232.408 586.638 -232.408H264.62C248.779 -232.408 235.791 -223.571 230.917 -209.499L4.66653 445.115C-5.05547 473.259 21.1032 506.821 52.784 506.821H314.967L224.539 768.469C211.162 807.162 262.494 847.15 294.771 823.178L737.057 494.588L804.878 266.242C813.2 238.201 787.249 206.039 756.268 206.039H495.2H495.174ZM668.251 442.834L338.04 688.155L400.728 506.821H504.066L550.602 472.378C567.35 459.965 553.558 430.628 530.977 430.628H95.4311L298.271 -156.215H542.747L380.273 282.232H715.954L668.251 442.834Z" stroke="url(#paint0_linear_32_129)" stroke-width="2" stroke-miterlimit="10"/>
<defs>
<linearGradient id="paint0_linear_32_129" x1="-23.0995" y1="377.111" x2="785.136" y2="160.463" gradientUnits="userSpaceOnUse">
<stop stop-color="#FEE300"/>
<stop offset="0.25" stop-color="#D3DF51"/>
<stop offset="0.5" stop-color="#85C883"/>
<stop offset="0.75" stop-color="#00AAE2"/>
<stop offset="1" stop-color="#4480C2"/>
</linearGradient>
</defs>
</svg>
