<svg width="109" height="129" viewBox="0 0 109 129" fill="none" xmlns="http://www.w3.org/2000/svg">
<g clip-path="url(#clip0_32_117)">
<path d="M150.777 -32.5208V161.521H-41.7774V-32.5208H150.777ZM150.826 -32.5693H-41.8256V161.569H150.826V-32.5693Z" fill="#0B1627"/>
<path d="M89.1772 82.9431C90.2412 82.9431 91.1038 82.0739 91.1038 81.0018V35.65L97.6226 40.7913C97.9742 41.0689 98.3932 41.2038 98.8088 41.2038C99.381 41.2038 99.9469 40.9485 100.327 40.4588C100.982 39.6148 100.835 38.3946 99.9965 37.7336L55.6868 2.78864C54.9889 2.23875 54.0107 2.23875 53.3123 2.78864L9.00257 37.7336C8.16454 38.3946 8.01668 39.6148 8.67218 40.4588C9.32863 41.3043 10.5404 41.4518 11.3765 40.7918L17.8954 35.6505V81.0022C17.8954 82.0744 18.7579 82.9436 19.8219 82.9436C20.8858 82.9436 21.7484 82.0744 21.7484 81.0022V71.2953H33.3074C34.3714 71.2953 35.234 70.4261 35.234 69.3539C35.234 68.2818 34.3714 67.4125 33.3074 67.4125H21.7484V32.6117L54.4991 6.78256L87.2498 32.6117V67.4125H75.6907C74.6268 67.4125 73.7642 68.2818 73.7642 69.3539C73.7642 70.4261 74.6268 71.2953 75.6907 71.2953H87.2498V81.0022C87.2498 82.0744 88.1124 82.9436 89.1763 82.9436L89.1772 82.9431Z" fill="#0B1627"/>
<path d="M3.48742 98.0807C3.46142 98.2078 3.44745 117.888 3.44745 117.888C3.44745 123.623 12.6547 126.624 21.7493 126.624C28.3341 126.624 34.9594 125.043 38.1247 121.998C41.2899 125.043 47.9152 126.624 54.5 126.624C61.0848 126.624 67.7101 125.043 70.8754 121.998C74.0406 125.043 80.6659 126.624 87.2507 126.624C96.3453 126.624 105.553 123.623 105.553 117.888C105.553 117.888 105.539 98.2078 105.513 98.0807C105.094 92.6064 96.1305 89.738 87.2507 89.738C81.8016 89.738 76.3274 90.8233 72.8019 92.921V88.7674C72.8019 84.2643 67.1201 81.4551 60.2795 80.4524V84.3789C65.6468 85.2797 68.9488 87.305 68.9488 88.7674C68.9488 90.6995 63.1862 93.6208 54.5 93.6208C45.8138 93.6208 40.0512 90.6995 40.0512 88.7674C40.0512 87.3055 43.3532 85.2797 48.7205 84.3789V80.4524C41.8799 81.4551 36.1981 84.2638 36.1981 88.7674V92.921C32.6726 90.8238 27.1984 89.738 21.7493 89.738C12.8691 89.738 3.90596 92.6064 3.48742 98.0807ZM87.2507 93.6208C95.9369 93.6208 101.7 96.5421 101.7 98.4743C101.7 100.406 95.9369 103.328 87.2507 103.328C78.5645 103.328 72.8019 100.406 72.8019 98.4743C72.8019 96.5421 78.5645 93.6208 87.2507 93.6208ZM72.8019 104.028C76.3274 106.125 81.8016 107.211 87.2507 107.211C92.6998 107.211 98.174 106.125 101.7 104.028V108.181C101.7 110.113 95.9369 113.035 87.2507 113.035C78.5645 113.035 72.8019 110.113 72.8019 108.181V104.028ZM72.8019 113.735C76.3274 115.832 81.8016 116.917 87.2507 116.917C92.6998 116.917 98.174 115.832 101.7 113.735V117.888C101.7 119.82 95.9369 122.742 87.2507 122.742C78.5645 122.742 72.8019 119.82 72.8019 117.888V113.735ZM40.0512 94.3207C43.5767 96.4179 49.0509 97.5036 54.5 97.5036C59.9491 97.5036 65.4233 96.4184 68.9488 94.3207V98.4743C68.9488 100.406 63.1862 103.328 54.5 103.328C45.8138 103.328 40.0512 100.406 40.0512 98.4743V94.3207ZM40.0512 104.028C43.5767 106.125 49.0509 107.211 54.5 107.211C59.9491 107.211 65.4233 106.125 68.9488 104.028V108.181C68.9488 110.113 63.1862 113.035 54.5 113.035C45.8138 113.035 40.0512 110.113 40.0512 108.181V104.028ZM40.0512 113.735C43.5767 115.832 49.0509 116.917 54.5 116.917C59.9491 116.917 65.4233 115.832 68.9488 113.735V117.888C68.9488 119.82 63.1862 122.742 54.5 122.742C45.8138 122.742 40.0512 119.82 40.0512 117.888V113.735ZM21.7493 93.6208C30.4355 93.6208 36.1981 96.5421 36.1981 98.4743C36.1981 100.406 30.4355 103.328 21.7493 103.328C13.0631 103.328 7.30047 100.406 7.30047 98.4743C7.30047 96.5421 13.0631 93.6208 21.7493 93.6208ZM7.30047 104.028C10.826 106.125 16.3002 107.211 21.7493 107.211C27.1984 107.211 32.6726 106.125 36.1981 104.028V108.181C36.1981 110.113 30.4355 113.035 21.7493 113.035C13.0631 113.035 7.30047 110.113 7.30047 108.181V104.028ZM7.30047 113.735C10.826 115.832 16.3002 116.917 21.7493 116.917C27.1984 116.917 32.6726 115.832 36.1981 113.735V117.888C36.1981 119.82 30.4355 122.742 21.7493 122.742C13.0631 122.742 7.30047 119.82 7.30047 117.888V113.735Z" fill="#0B1627"/>
<path d="M52.5735 72.1782V87.7967C52.5735 88.8688 53.4361 89.7381 54.5 89.7381C55.5639 89.7381 56.4265 88.8688 56.4265 87.7967V72.1782C55.7908 72.2316 55.1492 72.2656 54.5 72.2656C53.8508 72.2656 53.2092 72.2316 52.5735 72.1782Z" fill="#0B1627"/>
<path d="M73.7651 48.9688C73.7651 38.264 65.1232 29.5549 54.5 29.5549C43.8767 29.5549 35.2349 38.264 35.2349 48.9688C35.2349 59.6736 43.8767 68.3827 54.5 68.3827C65.1232 68.3827 73.7651 59.6736 73.7651 48.9688ZM54.5 64.4999C46.0017 64.4999 39.0879 57.5327 39.0879 48.9688C39.0879 40.4049 46.0017 33.4377 54.5 33.4377C62.9983 33.4377 69.9121 40.4049 69.9121 48.9688C69.9121 57.5327 62.9983 64.4999 54.5 64.4999Z" fill="#0B1627"/>
<path d="M54.9017 46.7018C53.5801 46.3446 52.7652 46.0898 52.5913 45.5778C52.4984 45.2972 52.9395 44.9691 53.2666 44.8371C54.1113 44.4935 55.2119 44.6144 56.0677 45.1395C56.9775 45.6981 58.1628 45.4079 58.7157 44.4925C59.2686 43.5767 58.982 42.3823 58.0732 41.8246C57.7327 41.6154 57.3715 41.4475 57.0035 41.2994V40.5569C57.0035 39.4847 56.1409 38.6155 55.077 38.6155C54.0131 38.6155 53.1505 39.4847 53.1505 40.5569V40.8714C52.6968 40.949 52.2518 41.0636 51.8279 41.2349C49.4029 42.2187 48.1883 44.5658 48.942 46.8246C49.7945 49.3421 52.1684 49.9842 53.9023 50.4531C54.9089 50.7254 55.9502 51.0069 56.2748 51.5165C56.4251 51.7519 56.4988 52.1042 56.322 52.3615C55.9738 52.8667 54.8882 53.0997 53.8002 52.906C53.4688 52.8463 53.1192 52.6862 52.8143 52.4551C51.9628 51.8111 50.7553 51.9829 50.1162 52.8405C49.4766 53.6976 49.6476 54.9144 50.4982 55.5589C51.1474 56.0511 51.878 56.4029 52.6347 56.6087V57.3824C52.6347 58.4545 53.4973 59.3238 54.5612 59.3238C55.6251 59.3238 56.4877 58.4545 56.4877 57.3824V56.5966C57.6465 56.2845 58.7417 55.6599 59.4877 54.5742C60.5358 53.0531 60.5459 51.0272 59.5162 49.4154C58.3872 47.6453 56.4544 47.1226 54.9022 46.7028L54.9017 46.7018Z" fill="#0B1627"/>
</g>
<defs>
<clipPath id="clip0_32_117">
<rect width="109" height="129" fill="white"/>
</clipPath>
</defs>
</svg>
