<svg width="134" height="144" viewBox="0 0 134 144" fill="none" xmlns="http://www.w3.org/2000/svg">
<g clip-path="url(#clip0_32_76)">
<path d="M40.903 133.322C39.7878 133.322 38.8833 132.408 38.8833 131.285V74.6191L22.6273 82.3263C22.0003 82.6245 21.2693 82.5815 20.685 82.2027C20.1007 81.832 19.7458 81.1819 19.7458 80.4861V68.6903C19.7458 67.5674 20.6503 66.6567 21.7682 66.6567C22.8861 66.6567 23.7878 67.5674 23.7878 68.6903V77.2759L40.0439 69.5688C40.6682 69.2706 41.3993 69.3162 41.9889 69.6923C42.5732 70.0657 42.9254 70.7131 42.9254 71.4116V131.285C42.9254 132.408 42.0209 133.322 40.903 133.322Z" fill="#0B1627"/>
<path d="M2.02234 80.1586C1.2673 80.1586 0.538934 79.7288 0.194762 78.9954C-0.282808 77.98 0.146739 76.7657 1.15524 76.2875L51.7804 52.1129C52.7889 51.6348 53.9949 52.0646 54.4724 53.08C54.95 54.0955 54.5205 55.3097 53.512 55.7906L2.88677 79.9598C2.60663 80.0941 2.31315 80.1559 2.02234 80.1559V80.1586Z" fill="#0B1627"/>
<path d="M78.7432 133.322C77.6253 133.322 76.7235 132.408 76.7235 131.285V74.6191L60.4674 82.3263C59.8431 82.6245 59.1121 82.5815 58.5225 82.2027C57.9382 81.832 57.586 81.1819 57.586 80.4861V68.6903C57.586 67.5674 58.4904 66.6567 59.6083 66.6567C60.7262 66.6567 61.628 67.5674 61.628 68.6903V77.2759L77.8814 69.5688C78.5031 69.2706 79.2368 69.3162 79.8264 69.6923C80.4107 70.0657 80.7655 70.7131 80.7655 71.4116V131.285C80.7655 132.408 79.8611 133.322 78.7458 133.322H78.7432Z" fill="#0B1627"/>
<path d="M52.6502 74.0525C51.8952 74.0525 51.1668 73.6227 50.8226 72.8893C50.3451 71.8738 50.7746 70.6596 51.7831 70.1787L89.6206 52.1102C90.6291 51.6321 91.835 52.0619 92.3126 53.0773C92.7902 54.0928 92.3606 55.307 91.3521 55.7879L53.5146 73.8564C53.2345 73.9907 52.941 74.0525 52.6502 74.0525Z" fill="#0B1627"/>
<path d="M116.581 133.322C115.465 133.322 114.561 132.408 114.561 131.285V74.6191L98.3076 82.3263C97.6833 82.6245 96.9469 82.5815 96.3626 82.2027C95.7783 81.832 95.4235 81.1819 95.4235 80.4861V68.6903C95.4235 67.5674 96.3279 66.6567 97.4432 66.6567C98.5584 66.6567 99.4655 67.5674 99.4655 68.6903V77.2759L115.722 69.5688C116.343 69.2706 117.077 69.3162 117.667 69.6923C118.251 70.0657 118.603 70.7131 118.603 71.4116V131.285C118.603 132.408 117.699 133.322 116.581 133.322Z" fill="#0B1627"/>
<path d="M90.4877 74.0525C89.7327 74.0525 89.0043 73.6227 88.6601 72.8893C88.1825 71.8738 88.6121 70.6596 89.6206 70.1787L127.458 52.1102C128.467 51.6321 129.673 52.0619 130.15 53.0773C130.628 54.0928 130.198 55.307 129.19 55.7879L91.3521 73.8564C91.072 73.9907 90.7785 74.0525 90.4877 74.0525Z" fill="#0B1627"/>
<path d="M50.5612 143.044C49.4459 143.044 48.5415 142.13 48.5415 141.007C48.5415 136.768 45.1158 133.322 40.9057 133.322C36.6956 133.322 33.2726 136.768 33.2726 141.007C33.2726 142.13 32.3681 143.044 31.2529 143.044C30.1377 143.044 29.2305 142.13 29.2305 141.007C29.2305 134.525 34.4678 129.252 40.9057 129.252C47.3436 129.252 52.5835 134.523 52.5835 141.007C52.5835 142.13 51.679 143.044 50.5612 143.044Z" fill="#0B1627"/>
<path d="M88.3986 143.522C87.2834 143.522 86.379 142.608 86.379 141.486C86.379 137.246 82.9533 133.797 78.7432 133.797C74.5331 133.797 71.11 137.246 71.11 141.486C71.11 142.608 70.2056 143.522 69.0904 143.522C67.9752 143.522 67.068 142.608 67.068 141.486C67.068 135.003 72.3053 129.727 78.7432 129.727C85.1811 129.727 90.421 135.003 90.421 141.486C90.421 142.608 89.5165 143.522 88.3986 143.522Z" fill="#0B1627"/>
<path d="M126.236 144C125.118 144 124.216 143.087 124.216 141.964C124.216 137.725 120.791 134.275 116.583 134.275C112.376 134.275 108.95 137.725 108.95 141.964C108.95 143.087 108.046 144 106.931 144C105.815 144 104.908 143.087 104.908 141.964C104.908 135.482 110.145 130.206 116.583 130.206C123.021 130.206 128.258 135.482 128.258 141.964C128.258 143.087 127.354 144 126.239 144H126.236Z" fill="#0B1627"/>
<path d="M131.98 144H10.632C9.51673 144 8.61228 143.087 8.61228 141.964C8.61228 140.841 9.51673 139.93 10.632 139.93H131.978C133.093 139.93 133.997 140.844 133.997 141.964C133.997 143.084 133.093 144 131.978 144H131.98Z" fill="#0B1627"/>
<path d="M70.9713 11.6802C70.7899 11.6802 70.6058 11.656 70.4217 11.605C69.3492 11.3014 68.7222 10.1785 69.0237 9.09593L71.1501 1.48814C71.4515 0.408221 72.5668 -0.228448 73.642 0.0804846C74.7145 0.384044 75.3415 1.50695 75.04 2.58955L72.9136 10.1973C72.6628 11.0946 71.8517 11.6802 70.9686 11.6802H70.9713Z" fill="#0B1627"/>
<path d="M84.426 22.3425C83.719 22.3425 83.0306 21.9691 82.6625 21.3029C82.1155 20.3224 82.4624 19.0812 83.4362 18.5332L90.2796 14.6675C91.2534 14.1195 92.4833 14.4661 93.0303 15.4466C93.5772 16.4271 93.2304 17.6682 92.2566 18.2162L85.4132 22.0819C85.101 22.2592 84.7622 22.3425 84.426 22.3425Z" fill="#0B1627"/>
<path d="M94.0014 41.5985C93.82 41.5985 93.6359 41.5743 93.4518 41.5233L85.8987 39.3822C84.8262 39.0787 84.1992 37.9558 84.5007 36.8731C84.8049 35.7932 85.9228 35.1566 86.9926 35.4655L94.5457 37.6065C95.6209 37.9101 96.2452 39.033 95.9437 40.1156C95.6929 41.0128 94.8819 41.5985 93.9988 41.5985H94.0014Z" fill="#0B1627"/>
<path d="M38.5605 48.2417C37.8535 48.2417 37.1652 47.8683 36.797 47.2021C36.25 46.2216 36.5969 44.9805 37.5707 44.4324L44.4141 40.5668C45.3852 40.0161 46.6205 40.3626 47.1648 41.3458C47.7117 42.3263 47.3649 43.5674 46.3911 44.1155L39.5477 47.9811C39.2355 48.1584 38.8967 48.2417 38.5605 48.2417Z" fill="#0B1627"/>
<path d="M43.3816 27.2586C43.2002 27.2586 43.0161 27.2345 42.832 27.1834L35.2789 25.0424C34.2063 24.7388 33.5794 23.6159 33.8809 22.5333C34.185 21.4534 35.3029 20.8167 36.3728 21.1257L43.9259 23.2667C45.0011 23.5702 45.6254 24.6931 45.3239 25.7758C45.0731 26.673 44.262 27.2586 43.3789 27.2586H43.3816Z" fill="#0B1627"/>
<path d="M53.9735 13.7165C53.2665 13.7165 52.5782 13.3431 52.21 12.6769L48.3707 5.78636C47.8238 4.80584 48.1706 3.56742 49.1445 3.01672C50.1156 2.46601 51.3509 2.81255 51.8952 3.79576L55.7344 10.6863C56.2813 11.6668 55.9345 12.9052 54.9607 13.4559C54.6485 13.6332 54.3097 13.7165 53.9735 13.7165Z" fill="#0B1627"/>
<path d="M58.1809 43.9168C57.8074 43.9168 57.4286 43.812 57.0924 43.5944C51.6977 40.1102 49.2378 33.5931 50.9774 27.3741C52.0232 23.6267 54.4591 20.5132 57.8314 18.6085C61.2064 16.7039 65.1097 16.2365 68.8342 17.2895C72.5561 18.3426 75.6483 20.7952 77.5399 24.1908C79.4315 27.5864 79.8958 31.5219 78.8499 35.2694C78.0628 38.0793 76.4807 40.5588 74.277 42.442C73.4232 43.17 72.1479 43.0625 71.4275 42.2029C70.7072 41.3432 70.8112 40.0618 71.665 39.3338C73.2524 37.9799 74.3943 36.1935 74.96 34.1653C75.715 31.4655 75.3788 28.6287 74.0155 26.1787C72.6522 23.7314 70.4244 21.9638 67.7404 21.2036C62.1963 19.6293 56.4254 22.896 54.87 28.4729C53.6187 32.9537 55.3876 37.6549 59.2775 40.1612C60.2166 40.7684 60.4914 42.0283 59.8885 42.9739C59.5016 43.5783 58.8506 43.9114 58.1863 43.9114L58.1809 43.9168Z" fill="#0B1627"/>
</g>
<defs>
<clipPath id="clip0_32_76">
<rect width="134" height="144" fill="[#F4F4F4]"/>
</clipPath>
</defs>
</svg>
